<svg width="585" height="585" viewBox="0 0 585 585" fill="none" xmlns="http://www.w3.org/2000/svg">
<path d="M265.501 48.6687C265.501 48.6687 108.951 67.8187 58.1711 224.199H265.501V264.799H8.62109C8.62109 264.799 28.7811 37.1987 265.501 8.46875V48.6687Z" stroke="#ED2224" stroke-width="2" stroke-miterlimit="10"/>
<path d="M321.16 8.46974C321.16 8.46974 334.78 7.74974 361.78 15.7897V224.2C361.78 224.2 521.53 223.64 576.97 224.3V264.8H321.16V8.46974Z" stroke="#ED2224" stroke-width="2" stroke-miterlimit="10"/>
<path d="M8.62109 320.461H265.501V361.061H58.1611C58.1611 361.061 63.6411 389.011 79.7811 412.181H265.501V452.981H108.621C108.621 452.981 187.471 535.071 265.501 535.071V576.791C265.501 576.791 42.6811 563.171 8.62109 320.461Z" stroke="#ED2224" stroke-width="2" stroke-miterlimit="10"/>
<path d="M321.16 320.461H576.94C576.94 320.461 568.48 476.751 414.45 550.861V504.241C414.45 504.241 451.12 484.881 476.94 452.981H361.78V569.461C361.78 569.461 349.02 575.851 321.19 576.791L321.16 320.461Z" stroke="#ED2224" stroke-width="2" stroke-miterlimit="10"/>
<path d="M361.781 361.059V412.179H505.831C515.572 396.331 522.846 379.094 527.401 361.059H361.781Z" stroke="#ED2224" stroke-width="2" stroke-miterlimit="10"/>
</svg>
