<svg width="599" height="599" viewBox="0 0 599 599" fill="none" xmlns="http://www.w3.org/2000/svg">
<g clip-path="url(#clip0)">
<path d="M594.55 25.36L452.17 162.35L452.17 393.15L565.18 284.42L565.18 443.06L482.36 522.75L482.36 443.43L508.81 417.97L508.81 456.62L535.4 431.05L535.4 353.89L451.3 434.8L451.3 589.15L594.55 451.33L594.55 215.99L480.09 326.11L480.09 173.74L564.3 92.72L564.3 170.83L537.61 196.5L537.61 156.88L508.25 185.14L508.25 264.72L594.55 181.68L594.55 25.36Z" stroke="#ED2224" stroke-width="10" stroke-miterlimit="10"/>
<path d="M9.39996 147.25L146.38 4.87004L377.18 4.87005L268.45 117.88L427.1 117.88L506.78 35.0601L427.46 35.0601L402.01 61.5201L440.66 61.5201L415.08 88.1001L337.92 88.1L418.84 4.00005L573.19 4.00006L435.36 147.25L200.02 147.25L310.15 32.7901L157.77 32.79L76.75 117L154.86 117L180.53 90.32L140.92 90.32L169.17 60.95L248.75 60.95L165.72 147.25L9.39996 147.25Z" stroke="#ED2224" stroke-width="10" stroke-miterlimit="10"/>
</g>
<defs>
<clipPath id="clip0">
<rect width="598.55" height="598.55" fill="white" transform="translate(598.55) rotate(90)"/>
</clipPath>
</defs>
</svg>
