<svg width="599" height="599" viewBox="0 0 599 599" fill="none" xmlns="http://www.w3.org/2000/svg">
<g clip-path="url(#clip0)">
<path d="M4 573.19L146.38 436.2L146.38 205.4L33.37 314.13L33.37 155.49L116.19 75.8L116.19 155.12L89.74 180.58L89.74 141.93L63.15 167.5L63.15 244.66L147.25 163.75L147.25 9.40002L3.99998 147.22L3.99999 382.56L118.46 272.44L118.46 424.81L34.25 505.83L34.25 427.72L60.94 402.05L60.94 441.67L90.3 413.41L90.3 333.83L3.99999 416.87L4 573.19Z" stroke="#ED2224" stroke-width="10" stroke-miterlimit="10"/>
<path d="M589.15 451.3L452.17 593.68L221.37 593.68L330.1 480.67L171.45 480.67L91.77 563.49L171.09 563.49L196.54 537.03L157.89 537.03L183.47 510.45L260.63 510.45L179.71 594.55L25.36 594.55L163.19 451.3L398.53 451.3L288.4 565.76L440.78 565.76L521.8 481.55L443.69 481.55L418.02 508.23L457.63 508.23L429.38 537.6L349.8 537.6L432.83 451.3L589.15 451.3Z" stroke="#ED2224" stroke-width="10" stroke-miterlimit="10"/>
</g>
<defs>
<clipPath id="clip0">
<rect width="598.55" height="598.55" fill="white" transform="translate(0 598.55) rotate(-90)"/>
</clipPath>
</defs>
</svg>
