<svg width="16432" height="154" viewBox="0 0 16432 154" fill="none" xmlns="http://www.w3.org/2000/svg">
<path d="M575.79 148.25L438.8 5.86998L208 5.86996L316.73 118.88L158.09 118.88L78.4 36.06L157.72 36.06L183.18 62.51L144.53 62.51L170.1 89.1L247.26 89.1L166.35 4.99996L12 4.99995L149.82 148.25L385.16 148.25L275.04 33.79L427.41 33.79L508.43 118L430.32 118L404.65 91.31L444.27 91.31L416.01 61.95L336.43 61.95L419.47 148.25L575.79 148.25Z" stroke="#ED2224" stroke-width="10" stroke-miterlimit="10"/>
<path d="M1041.79 148.25L904.8 5.86998L674 5.86996L782.73 118.88L624.09 118.88L544.4 36.06L623.72 36.06L649.18 62.51L610.53 62.51L636.1 89.1L713.26 89.1L632.35 4.99996L478 4.99995L615.82 148.25L851.16 148.25L741.04 33.79L893.41 33.79L974.43 118L896.32 118L870.65 91.31L910.27 91.31L882.01 61.95L802.43 61.95L885.47 148.25L1041.79 148.25Z" stroke="#ED2224" stroke-width="10" stroke-miterlimit="10"/>
<path d="M2439.79 148.25L2302.8 5.86998L2072 5.86996L2180.73 118.88L2022.09 118.88L1942.4 36.06L2021.72 36.06L2047.18 62.51L2008.53 62.51L2034.1 89.1L2111.26 89.1L2030.35 4.99996L1876 4.99995L2013.82 148.25L2249.16 148.25L2139.04 33.79L2291.41 33.79L2372.43 118L2294.32 118L2268.65 91.31L2308.27 91.31L2280.01 61.95L2200.43 61.95L2283.47 148.25L2439.79 148.25Z" stroke="#ED2224" stroke-width="10" stroke-miterlimit="10"/>
<path d="M3837.79 148.25L3700.8 5.86998L3470 5.86996L3578.73 118.88L3420.09 118.88L3340.4 36.06L3419.72 36.06L3445.18 62.51L3406.53 62.51L3432.1 89.1L3509.26 89.1L3428.35 4.99996L3274 4.99995L3411.82 148.25L3647.16 148.25L3537.04 33.79L3689.41 33.79L3770.43 118L3692.32 118L3666.65 91.31L3706.27 91.31L3678.01 61.95L3598.43 61.95L3681.47 148.25L3837.79 148.25Z" stroke="#ED2224" stroke-width="10" stroke-miterlimit="10"/>
<path d="M5235.79 148.25L5098.8 5.86998L4868 5.86996L4976.73 118.88L4818.09 118.88L4738.4 36.06L4817.72 36.06L4843.18 62.51L4804.53 62.51L4830.1 89.1L4907.26 89.1L4826.35 4.99996L4672 4.99995L4809.82 148.25L5045.16 148.25L4935.04 33.79L5087.41 33.79L5168.43 118L5090.32 118L5064.65 91.31L5104.27 91.31L5076.01 61.95L4996.43 61.95L5079.47 148.25L5235.79 148.25Z" stroke="#ED2224" stroke-width="10" stroke-miterlimit="10"/>
<path d="M6633.79 148.25L6496.8 5.86998L6266 5.86996L6374.73 118.88L6216.09 118.88L6136.4 36.06L6215.72 36.06L6241.18 62.51L6202.53 62.51L6228.1 89.1L6305.26 89.1L6224.35 4.99996L6070 4.99995L6207.82 148.25L6443.16 148.25L6333.04 33.79L6485.41 33.79L6566.43 118L6488.32 118L6462.65 91.31L6502.27 91.31L6474.01 61.95L6394.43 61.95L6477.47 148.25L6633.79 148.25Z" stroke="#ED2224" stroke-width="10" stroke-miterlimit="10"/>
<path d="M10361.8 148.25L10224.8 5.86998L9994 5.86996L10102.7 118.88L9944.09 118.88L9864.4 36.06L9943.72 36.06L9969.18 62.51L9930.53 62.51L9956.1 89.1L10033.3 89.1L9952.35 4.99996L9798 4.99995L9935.82 148.25L10171.2 148.25L10061 33.79L10213.4 33.79L10294.4 118L10216.3 118L10190.7 91.31L10230.3 91.31L10202 61.95L10122.4 61.95L10205.5 148.25L10361.8 148.25Z" stroke="#ED2224" stroke-width="10" stroke-miterlimit="10"/>
<path d="M14089.8 148.25L13952.8 5.86998L13722 5.86996L13830.7 118.88L13672.1 118.88L13592.4 36.06L13671.7 36.06L13697.2 62.51L13658.5 62.51L13684.1 89.1L13761.3 89.1L13680.4 4.99996L13526 4.99995L13663.8 148.25L13899.2 148.25L13789 33.79L13941.4 33.79L14022.4 118L13944.3 118L13918.7 91.31L13958.3 91.31L13930 61.95L13850.4 61.95L13933.5 148.25L14089.8 148.25Z" stroke="#ED2224" stroke-width="10" stroke-miterlimit="10"/>
<path d="M8031.79 148.25L7894.8 5.86998L7664 5.86996L7772.73 118.88L7614.09 118.88L7534.4 36.06L7613.72 36.06L7639.18 62.51L7600.53 62.51L7626.1 89.1L7703.26 89.1L7622.35 4.99996L7468 4.99995L7605.82 148.25L7841.16 148.25L7731.04 33.79L7883.41 33.79L7964.43 118L7886.32 118L7860.65 91.31L7900.27 91.31L7872.01 61.95L7792.43 61.95L7875.47 148.25L8031.79 148.25Z" stroke="#ED2224" stroke-width="10" stroke-miterlimit="10"/>
<path d="M11759.8 148.25L11622.8 5.86998L11392 5.86996L11500.7 118.88L11342.1 118.88L11262.4 36.06L11341.7 36.06L11367.2 62.51L11328.5 62.51L11354.1 89.1L11431.3 89.1L11350.4 4.99996L11196 4.99995L11333.8 148.25L11569.2 148.25L11459 33.79L11611.4 33.79L11692.4 118L11614.3 118L11588.7 91.31L11628.3 91.31L11600 61.95L11520.4 61.95L11603.5 148.25L11759.8 148.25Z" stroke="#ED2224" stroke-width="10" stroke-miterlimit="10"/>
<path d="M15487.8 148.25L15350.8 5.86998L15120 5.86996L15228.7 118.88L15070.1 118.88L14990.4 36.06L15069.7 36.06L15095.2 62.51L15056.5 62.51L15082.1 89.1L15159.3 89.1L15078.3 4.99996L14924 4.99995L15061.8 148.25L15297.2 148.25L15187 33.79L15339.4 33.79L15420.4 118L15342.3 118L15316.6 91.31L15356.3 91.31L15328 61.95L15248.4 61.95L15331.5 148.25L15487.8 148.25Z" stroke="#ED2224" stroke-width="10" stroke-miterlimit="10"/>
<path d="M1507.79 148.25L1370.8 5.86998L1140 5.86996L1248.73 118.88L1090.09 118.88L1010.4 36.06L1089.72 36.06L1115.18 62.51L1076.53 62.51L1102.1 89.1L1179.26 89.1L1098.35 4.99996L944 4.99995L1081.82 148.25L1317.16 148.25L1207.04 33.79L1359.41 33.79L1440.43 118L1362.32 118L1336.65 91.31L1376.27 91.31L1348.01 61.95L1268.43 61.95L1351.47 148.25L1507.79 148.25Z" stroke="#ED2224" stroke-width="10" stroke-miterlimit="10"/>
<path d="M2905.79 148.25L2768.8 5.86998L2538 5.86996L2646.73 118.88L2488.09 118.88L2408.4 36.06L2487.72 36.06L2513.18 62.51L2474.53 62.51L2500.1 89.1L2577.26 89.1L2496.35 4.99996L2342 4.99995L2479.82 148.25L2715.16 148.25L2605.04 33.79L2757.41 33.79L2838.43 118L2760.32 118L2734.65 91.31L2774.27 91.31L2746.01 61.95L2666.43 61.95L2749.47 148.25L2905.79 148.25Z" stroke="#ED2224" stroke-width="10" stroke-miterlimit="10"/>
<path d="M4303.79 148.25L4166.8 5.86998L3936 5.86996L4044.73 118.88L3886.09 118.88L3806.4 36.06L3885.72 36.06L3911.18 62.51L3872.53 62.51L3898.1 89.1L3975.26 89.1L3894.35 4.99996L3740 4.99995L3877.82 148.25L4113.16 148.25L4003.04 33.79L4155.41 33.79L4236.43 118L4158.32 118L4132.65 91.31L4172.27 91.31L4144.01 61.95L4064.43 61.95L4147.47 148.25L4303.79 148.25Z" stroke="#ED2224" stroke-width="10" stroke-miterlimit="10"/>
<path d="M5701.79 148.25L5564.8 5.86998L5334 5.86996L5442.73 118.88L5284.09 118.88L5204.4 36.06L5283.72 36.06L5309.18 62.51L5270.53 62.51L5296.1 89.1L5373.26 89.1L5292.35 4.99996L5138 4.99995L5275.82 148.25L5511.16 148.25L5401.04 33.79L5553.41 33.79L5634.43 118L5556.32 118L5530.65 91.31L5570.27 91.31L5542.01 61.95L5462.43 61.95L5545.47 148.25L5701.79 148.25Z" stroke="#ED2224" stroke-width="10" stroke-miterlimit="10"/>
<path d="M9429.79 148.25L9292.8 5.86998L9062 5.86996L9170.73 118.88L9012.09 118.88L8932.4 36.06L9011.72 36.06L9037.18 62.51L8998.53 62.51L9024.1 89.1L9101.26 89.1L9020.35 4.99996L8866 4.99995L9003.82 148.25L9239.16 148.25L9129.04 33.79L9281.41 33.79L9362.43 118L9284.32 118L9258.65 91.31L9298.27 91.31L9270.01 61.95L9190.43 61.95L9273.47 148.25L9429.79 148.25Z" stroke="#ED2224" stroke-width="10" stroke-miterlimit="10"/>
<path d="M13157.8 148.25L13020.8 5.86998L12790 5.86996L12898.7 118.88L12740.1 118.88L12660.4 36.06L12739.7 36.06L12765.2 62.51L12726.5 62.51L12752.1 89.1L12829.3 89.1L12748.4 4.99996L12594 4.99995L12731.8 148.25L12967.2 148.25L12857 33.79L13009.4 33.79L13090.4 118L13012.3 118L12986.7 91.31L13026.3 91.31L12998 61.95L12918.4 61.95L13001.5 148.25L13157.8 148.25Z" stroke="#ED2224" stroke-width="10" stroke-miterlimit="10"/>
<path d="M7099.79 148.25L6962.8 5.86998L6732 5.86996L6840.73 118.88L6682.09 118.88L6602.4 36.06L6681.72 36.06L6707.18 62.51L6668.53 62.51L6694.1 89.1L6771.26 89.1L6690.35 4.99996L6536 4.99995L6673.82 148.25L6909.16 148.25L6799.04 33.79L6951.41 33.79L7032.43 118L6954.32 118L6928.65 91.31L6968.27 91.31L6940.01 61.95L6860.43 61.95L6943.47 148.25L7099.79 148.25Z" stroke="#ED2224" stroke-width="10" stroke-miterlimit="10"/>
<path d="M10827.8 148.25L10690.8 5.86998L10460 5.86996L10568.7 118.88L10410.1 118.88L10330.4 36.06L10409.7 36.06L10435.2 62.51L10396.5 62.51L10422.1 89.1L10499.3 89.1L10418.4 4.99996L10264 4.99995L10401.8 148.25L10637.2 148.25L10527 33.79L10679.4 33.79L10760.4 118L10682.3 118L10656.7 91.31L10696.3 91.31L10668 61.95L10588.4 61.95L10671.5 148.25L10827.8 148.25Z" stroke="#ED2224" stroke-width="10" stroke-miterlimit="10"/>
<path d="M14555.8 148.25L14418.8 5.86998L14188 5.86996L14296.7 118.88L14138.1 118.88L14058.4 36.06L14137.7 36.06L14163.2 62.51L14124.5 62.51L14150.1 89.1L14227.3 89.1L14146.3 4.99996L13992 4.99995L14129.8 148.25L14365.2 148.25L14255 33.79L14407.4 33.79L14488.4 118L14410.3 118L14384.6 91.31L14424.3 91.31L14396 61.95L14316.4 61.95L14399.5 148.25L14555.8 148.25Z" stroke="#ED2224" stroke-width="10" stroke-miterlimit="10"/>
<path d="M8497.79 148.25L8360.8 5.86998L8130 5.86996L8238.73 118.88L8080.09 118.88L8000.4 36.06L8079.72 36.06L8105.18 62.51L8066.53 62.51L8092.1 89.1L8169.26 89.1L8088.35 4.99996L7934 4.99995L8071.82 148.25L8307.16 148.25L8197.04 33.79L8349.41 33.79L8430.43 118L8352.32 118L8326.65 91.31L8366.27 91.31L8338.01 61.95L8258.43 61.95L8341.47 148.25L8497.79 148.25Z" stroke="#ED2224" stroke-width="10" stroke-miterlimit="10"/>
<path d="M12225.8 148.25L12088.8 5.86998L11858 5.86996L11966.7 118.88L11808.1 118.88L11728.4 36.06L11807.7 36.06L11833.2 62.51L11794.5 62.51L11820.1 89.1L11897.3 89.1L11816.4 4.99996L11662 4.99995L11799.8 148.25L12035.2 148.25L11925 33.79L12077.4 33.79L12158.4 118L12080.3 118L12054.7 91.31L12094.3 91.31L12066 61.95L11986.4 61.95L12069.5 148.25L12225.8 148.25Z" stroke="#ED2224" stroke-width="10" stroke-miterlimit="10"/>
<path d="M15953.8 148.25L15816.8 5.86998L15586 5.86996L15694.7 118.88L15536.1 118.88L15456.4 36.06L15535.7 36.06L15561.2 62.51L15522.5 62.51L15548.1 89.1L15625.3 89.1L15544.3 4.99996L15390 4.99995L15527.8 148.25L15763.2 148.25L15653 33.79L15805.4 33.79L15886.4 118L15808.3 118L15782.6 91.31L15822.3 91.31L15794 61.95L15714.4 61.95L15797.5 148.25L15953.8 148.25Z" stroke="#ED2224" stroke-width="10" stroke-miterlimit="10"/>
<path d="M1973.79 148.25L1836.8 5.86998L1606 5.86996L1714.73 118.88L1556.09 118.88L1476.4 36.06L1555.72 36.06L1581.18 62.51L1542.53 62.51L1568.1 89.1L1645.26 89.1L1564.35 4.99996L1410 4.99995L1547.82 148.25L1783.16 148.25L1673.04 33.79L1825.41 33.79L1906.43 118L1828.32 118L1802.65 91.31L1842.27 91.31L1814.01 61.95L1734.43 61.95L1817.47 148.25L1973.79 148.25Z" stroke="#ED2224" stroke-width="10" stroke-miterlimit="10"/>
<path d="M3371.79 148.25L3234.8 5.86998L3004 5.86996L3112.73 118.88L2954.09 118.88L2874.4 36.06L2953.72 36.06L2979.18 62.51L2940.53 62.51L2966.1 89.1L3043.26 89.1L2962.35 4.99996L2808 4.99995L2945.82 148.25L3181.16 148.25L3071.04 33.79L3223.41 33.79L3304.43 118L3226.32 118L3200.65 91.31L3240.27 91.31L3212.01 61.95L3132.43 61.95L3215.47 148.25L3371.79 148.25Z" stroke="#ED2224" stroke-width="10" stroke-miterlimit="10"/>
<path d="M4769.79 148.25L4632.8 5.86998L4402 5.86996L4510.73 118.88L4352.09 118.88L4272.4 36.06L4351.72 36.06L4377.18 62.51L4338.53 62.51L4364.1 89.1L4441.26 89.1L4360.35 4.99996L4206 4.99995L4343.82 148.25L4579.16 148.25L4469.04 33.79L4621.41 33.79L4702.43 118L4624.32 118L4598.65 91.31L4638.27 91.31L4610.01 61.95L4530.43 61.95L4613.47 148.25L4769.79 148.25Z" stroke="#ED2224" stroke-width="10" stroke-miterlimit="10"/>
<path d="M6167.79 148.25L6030.8 5.86998L5800 5.86996L5908.73 118.88L5750.09 118.88L5670.4 36.06L5749.72 36.06L5775.18 62.51L5736.53 62.51L5762.1 89.1L5839.26 89.1L5758.35 4.99996L5604 4.99995L5741.82 148.25L5977.16 148.25L5867.04 33.79L6019.41 33.79L6100.43 118L6022.32 118L5996.65 91.31L6036.27 91.31L6008.01 61.95L5928.43 61.95L6011.47 148.25L6167.79 148.25Z" stroke="#ED2224" stroke-width="10" stroke-miterlimit="10"/>
<path d="M9895.79 148.25L9758.8 5.86998L9528 5.86996L9636.73 118.88L9478.09 118.88L9398.4 36.06L9477.72 36.06L9503.18 62.51L9464.53 62.51L9490.1 89.1L9567.26 89.1L9486.35 4.99996L9332 4.99995L9469.82 148.25L9705.16 148.25L9595.04 33.79L9747.41 33.79L9828.43 118L9750.32 118L9724.65 91.31L9764.27 91.31L9736.01 61.95L9656.43 61.95L9739.47 148.25L9895.79 148.25Z" stroke="#ED2224" stroke-width="10" stroke-miterlimit="10"/>
<path d="M13623.8 148.25L13486.8 5.86998L13256 5.86996L13364.7 118.88L13206.1 118.88L13126.4 36.06L13205.7 36.06L13231.2 62.51L13192.5 62.51L13218.1 89.1L13295.3 89.1L13214.4 4.99996L13060 4.99995L13197.8 148.25L13433.2 148.25L13323 33.79L13475.4 33.79L13556.4 118L13478.3 118L13452.7 91.31L13492.3 91.31L13464 61.95L13384.4 61.95L13467.5 148.25L13623.8 148.25Z" stroke="#ED2224" stroke-width="10" stroke-miterlimit="10"/>
<path d="M7565.79 148.25L7428.8 5.86998L7198 5.86996L7306.73 118.88L7148.09 118.88L7068.4 36.06L7147.72 36.06L7173.18 62.51L7134.53 62.51L7160.1 89.1L7237.26 89.1L7156.35 4.99996L7002 4.99995L7139.82 148.25L7375.16 148.25L7265.04 33.79L7417.41 33.79L7498.43 118L7420.32 118L7394.65 91.31L7434.27 91.31L7406.01 61.95L7326.43 61.95L7409.47 148.25L7565.79 148.25Z" stroke="#ED2224" stroke-width="10" stroke-miterlimit="10"/>
<path d="M11293.8 148.25L11156.8 5.86998L10926 5.86996L11034.7 118.88L10876.1 118.88L10796.4 36.06L10875.7 36.06L10901.2 62.51L10862.5 62.51L10888.1 89.1L10965.3 89.1L10884.4 4.99996L10730 4.99995L10867.8 148.25L11103.2 148.25L10993 33.79L11145.4 33.79L11226.4 118L11148.3 118L11122.7 91.31L11162.3 91.31L11134 61.95L11054.4 61.95L11137.5 148.25L11293.8 148.25Z" stroke="#ED2224" stroke-width="10" stroke-miterlimit="10"/>
<path d="M15021.8 148.25L14884.8 5.86998L14654 5.86996L14762.7 118.88L14604.1 118.88L14524.4 36.06L14603.7 36.06L14629.2 62.51L14590.5 62.51L14616.1 89.1L14693.3 89.1L14612.3 4.99996L14458 4.99995L14595.8 148.25L14831.2 148.25L14721 33.79L14873.4 33.79L14954.4 118L14876.3 118L14850.6 91.31L14890.3 91.31L14862 61.95L14782.4 61.95L14865.5 148.25L15021.8 148.25Z" stroke="#ED2224" stroke-width="10" stroke-miterlimit="10"/>
<path d="M8963.79 148.25L8826.8 5.86998L8596 5.86996L8704.73 118.88L8546.09 118.88L8466.4 36.06L8545.72 36.06L8571.18 62.51L8532.53 62.51L8558.1 89.1L8635.26 89.1L8554.35 4.99996L8400 4.99995L8537.82 148.25L8773.16 148.25L8663.04 33.79L8815.41 33.79L8896.43 118L8818.32 118L8792.65 91.31L8832.27 91.31L8804.01 61.95L8724.43 61.95L8807.47 148.25L8963.79 148.25Z" stroke="#ED2224" stroke-width="10" stroke-miterlimit="10"/>
<path d="M12691.8 148.25L12554.8 5.86998L12324 5.86996L12432.7 118.88L12274.1 118.88L12194.4 36.06L12273.7 36.06L12299.2 62.51L12260.5 62.51L12286.1 89.1L12363.3 89.1L12282.4 4.99996L12128 4.99995L12265.8 148.25L12501.2 148.25L12391 33.79L12543.4 33.79L12624.4 118L12546.3 118L12520.7 91.31L12560.3 91.31L12532 61.95L12452.4 61.95L12535.5 148.25L12691.8 148.25Z" stroke="#ED2224" stroke-width="10" stroke-miterlimit="10"/>
<path d="M16419.8 148.25L16282.8 5.86998L16052 5.86996L16160.7 118.88L16002.1 118.88L15922.4 36.06L16001.7 36.06L16027.2 62.51L15988.5 62.51L16014.1 89.1L16091.3 89.1L16010.3 4.99996L15856 4.99995L15993.8 148.25L16229.2 148.25L16119 33.79L16271.4 33.79L16352.4 118L16274.3 118L16248.6 91.31L16288.3 91.31L16260 61.95L16180.4 61.95L16263.5 148.25L16419.8 148.25Z" stroke="#ED2224" stroke-width="10" stroke-miterlimit="10"/>
</svg>
